<?xml version="1.0" encoding="utf-8"?>
<!-- Generator: Adobe Illustrator 16.0.0, SVG Export Plug-In . SVG Version: 6.00 Build 0)  -->
<!DOCTYPE svg PUBLIC "-//W3C//DTD SVG 1.1//EN" "http://www.w3.org/Graphics/SVG/1.1/DTD/svg11.dtd">
<svg version="1.1" id="Capa_1" xmlns="http://www.w3.org/2000/svg" xmlns:xlink="http://www.w3.org/1999/xlink" x="0px" y="0px"
	 width="211.542px" height="211.287px" viewBox="1580.458 256.928 211.542 211.287"
	 enable-background="new 1580.458 256.928 211.542 211.287" xml:space="preserve">
<g id="Layer_x0020_1">
	<g id="_316006000">
		<path id="_316005568" fill="#EEEEEE" d="M1645.878,447.396l-50.216,15.98l-15.204,4.839l21.359-63.091
			c-3.584-6.588-6.424-13.568-8.446-20.797c-2.454-8.771-3.692-17.835-3.692-26.942c0-26.799,10.662-52.206,29.67-71.06
			c19.069-18.916,44.666-29.397,71.521-29.397c26.847,0,52.429,10.494,71.482,29.413c19,18.866,29.648,44.278,29.648,71.077
			c0,26.793-10.66,52.197-29.662,71.051c-19.063,18.913-44.65,29.398-71.499,29.398c-8.518,0-17.003-1.052-25.257-3.163
			C1658.776,452.962,1652.17,450.509,1645.878,447.396L1645.878,447.396z"/>
		<path id="_316005808" fill="#4AC959" d="M1783.933,357.417c0-25.519-10.42-48.625-27.266-65.352
			c-16.844-16.725-40.107-27.07-65.798-27.07c-25.712,0-48.987,10.341-65.839,27.058c-16.859,16.724-27.284,39.824-27.284,65.332
			c0,8.563,1.184,16.871,3.394,24.768c2.196,7.846,5.408,15.275,9.479,22.131l-16.129,47.638l-1.274,3.767l3.788-1.206
			l49.606-15.787c6.567,3.534,13.595,6.304,20.972,8.191c7.432,1.901,15.222,2.911,23.257,2.911
			c25.701,0,48.969-10.342,65.816-27.057C1773.51,406.019,1783.933,382.92,1783.933,357.417L1783.933,357.417z"/>
		<path id="_316006024" fill="#FFFFFF" d="M1675.73,332.188c-0.408-0.823-2.768-6.521-4.941-11.771
			c-1.39-3.357-2.716-6.559-2.976-7.178c-2.448-5.838-5.155-5.662-7.23-5.527c-0.137,0.009-0.268,0.018-0.443,0.018
			c-0.724,0-1.437-0.045-2.174-0.092c-0.922-0.059-1.88-0.119-2.784-0.119c-1.203,0-2.841,0.249-4.566,1.057
			c-1.279,0.599-2.599,1.5-3.807,2.828c-0.177,0.19-0.31,0.33-0.453,0.481c-2.874,3.021-9.14,9.607-9.14,22.254
			c0,13.268,9.567,25.885,10.974,27.738l-0.006,0.004l0.014,0.017l0.016,0.016c0.055,0.071,0.258,0.368,0.559,0.807
			c3.533,5.168,19.777,28.924,44.47,38.569c22.402,8.742,26.456,7.761,30.076,6.885c0.616-0.149,1.219-0.295,1.87-0.355
			c2.932-0.275,7.729-2.282,11.765-5.101c3.349-2.338,6.271-5.293,7.391-8.405c0.998-2.782,1.563-5.367,1.824-7.494
			c0.381-3.09,0.079-5.521-0.482-6.46l-0.009-0.008c-0.854-1.408-2.333-2.106-4.551-3.154c-0.392-0.185-0.81-0.382-1.212-0.577
			l0.002-0.002c-1.53-0.778-6.821-3.365-11.345-5.503c-2.923-1.382-5.521-2.569-6.549-2.938c-1.447-0.52-2.707-0.913-4.059-0.76
			c-1.532,0.173-2.869,0.962-4.108,2.839l-0.003-0.002c-0.623,0.935-1.719,2.336-2.917,3.804c-1.897,2.325-4.161,4.935-5.126,6.031
			v0.008c-0.412,0.469-0.768,0.725-1.115,0.767c-0.483,0.058-1.148-0.14-2.068-0.592c-0.588-0.294-1.161-0.542-1.868-0.847
			c-3.577-1.543-10.545-4.549-18.485-11.58c-2.841-2.514-5.34-5.262-7.428-7.841c-3.379-4.173-5.662-7.892-6.57-9.458
			c-0.716-1.229,0.08-2.024,0.814-2.759l-0.004-0.004c0.813-0.812,1.732-1.917,2.655-3.025c0.42-0.505,0.84-1.011,1.352-1.6
			l0.008-0.008c1.244-1.447,1.76-2.501,2.456-3.923c0.122-0.248,0.249-0.507,0.377-0.762l0.008-0.008
			c0.611-1.234,0.769-2.408,0.654-3.508c-0.105-1.023-0.448-1.937-0.866-2.755L1675.73,332.188L1675.73,332.188z"/>
	</g>
</g>
</svg>
